<svg width="32" height="26" viewBox="0 0 32 26" fill="none" xmlns="http://www.w3.org/2000/svg">
<path d="M31.24 20.62H29.72V23.67H31.24V20.62Z" fill="black"/>
<path d="M31.24 11.47H29.72V14.52H31.24V11.47Z" fill="black"/>
<path d="M31.24 2.33H29.72V5.38H31.24V2.33Z" fill="black"/>
<path d="M29.72 23.67H11.43V25.19H29.72V23.67Z" fill="black"/>
<path d="M29.72 14.52H11.43V16.05H29.72V14.52Z" fill="black"/>
<path d="M29.72 5.38H11.43V6.9H29.72V5.38Z" fill="black"/>
<path d="M29.72 19.09H11.43V20.62H29.72V19.09Z" fill="black"/>
<path d="M29.72 9.95H11.43V11.47H29.72V9.95Z" fill="black"/>
<path d="M29.72 0.809999H11.43V2.33H29.72V0.809999Z" fill="black"/>
<path d="M11.43 20.62H9.91V23.67H11.43V20.62Z" fill="black"/>
<path d="M11.43 11.47H9.91V14.52H11.43V11.47Z" fill="black"/>
<path d="M11.43 2.33H9.91V5.38H11.43V2.33Z" fill="black"/>
<path d="M0.759998 23.67H2.29V25.19H5.34V23.67H6.86V20.62H5.34V19.09H2.29V20.62H0.759998V23.67Z" fill="black"/>
<path d="M0.759998 14.52H2.29V16.05H5.34V14.52H6.86V11.47H5.34V9.95H2.29V11.47H0.759998V14.52Z" fill="black"/>
<path d="M2.29 2.33H0.759998V5.38H2.29V6.9H5.34V5.38H6.86V2.33H5.34V0.809999H2.29V2.33Z" fill="black"/>
</svg>
