<svg width="67" height="67" viewBox="0 0 67 67" fill="none" xmlns="http://www.w3.org/2000/svg">
<path d="M66.5934 25.3692H63.4094V41.2268H66.5934V25.3692Z" fill="black"/>
<path d="M63.4097 41.2244H60.2465V47.5716H63.4097V41.2244Z" fill="black"/>
<path d="M63.4092 19.0183H60.246V25.3655H63.4092V19.0183Z" fill="black"/>
<path d="M60.246 47.5754H57.0828V53.9018H60.246V47.5754Z" fill="black"/>
<path d="M60.246 12.6727H57.0828V19.0199H60.246V12.6727Z" fill="black"/>
<path d="M57.0843 53.8971H53.9003V57.0811H57.0843V53.8971Z" fill="black"/>
<path d="M57.0843 9.50996H53.9003V12.6732H57.0843V9.50996Z" fill="black"/>
<path d="M53.8993 57.0836H47.5521V60.2468H53.8993V57.0836Z" fill="black"/>
<path d="M53.8993 6.34523H47.5521V9.50843H53.8993V6.34523Z" fill="black"/>
<path d="M47.552 60.2483H41.2256V63.4323H47.552V60.2483Z" fill="black"/>
<path d="M47.552 3.16492H41.2256V6.34894H47.552V3.16492Z" fill="black"/>
<path d="M41.226 63.4288H25.3684V66.592H41.226V63.4288Z" fill="black"/>
<path d="M41.226 -2.28882e-05H25.3684V3.16318H41.226V-2.28882e-05Z" fill="black"/>
<path d="M25.3684 60.2483H19.0212V63.4323H25.3684V60.2483Z" fill="black"/>
<path d="M25.3679 3.16492H19.0207V6.34894H25.3679V3.16492Z" fill="black"/>
<path d="M19.0222 57.0836H12.675V60.2468H19.0222V57.0836Z" fill="black"/>
<path d="M19.0222 6.34523H12.675V9.50843H19.0222V6.34523Z" fill="black"/>
<path d="M12.6744 53.8971H9.51122V57.0811H12.6744V53.8971Z" fill="black"/>
<path d="M12.6744 9.50996H9.51122V12.6732H12.6744V9.50996Z" fill="black"/>
<path d="M9.51016 47.5754H6.32615V53.9018H9.51016V47.5754Z" fill="black"/>
<path d="M9.51079 12.6727H6.32677V19.0199H9.51079V12.6727Z" fill="black"/>
<path d="M6.32709 41.2244H3.16389V47.5716H6.32709V41.2244Z" fill="black"/>
<path d="M6.32671 19.0183H3.16351V25.3655H6.32671V19.0183Z" fill="black"/>
<path d="M3.16345 25.3692H0.000249386V41.2268H3.16345V25.3692Z" fill="black"/>
</svg>
