<svg width="18" height="10" viewBox="0 0 18 10" fill="none" xmlns="http://www.w3.org/2000/svg">
<path d="M2.51255 2.24755L2.51255 0.727547L0.982549 0.727547L0.982549 2.24755L2.51255 2.24755Z" fill="black"/>
<path d="M4.03255 3.77754L4.03255 2.24754L2.51255 2.24754L2.51255 3.77754L4.03255 3.77754Z" fill="black"/>
<path d="M5.56255 5.29754L5.56255 3.77754L4.03255 3.77754L4.03255 5.29754L5.56255 5.29754Z" fill="black"/>
<path d="M7.08255 6.81755L7.08255 5.29755L5.56255 5.29755L5.56255 6.81755L7.08255 6.81755Z" fill="black"/>
<path d="M8.60255 8.34754L8.60255 6.81754L7.08255 6.81754L7.08255 8.34754L8.60255 8.34754Z" fill="black"/>
<path d="M10.1325 9.86754L10.1325 8.34754L8.60255 8.34754L8.60255 9.86754L10.1325 9.86754Z" fill="black"/>
<path d="M11.6525 8.34754L11.6525 6.81754L10.1325 6.81754L10.1325 8.34754L11.6525 8.34754Z" fill="black"/>
<path d="M13.1725 6.81755L13.1725 5.29755L11.6525 5.29755L11.6525 6.81755L13.1725 6.81755Z" fill="black"/>
<path d="M14.7025 5.29754L14.7025 3.77754L13.1725 3.77754L13.1725 5.29754L14.7025 5.29754Z" fill="black"/>
<path d="M16.2225 3.77754L16.2225 2.24754L14.7025 2.24754L14.7025 3.77754L16.2225 3.77754Z" fill="black"/>
<path d="M17.7525 2.24755L17.7525 0.727547L16.2225 0.727547L16.2225 2.24755L17.7525 2.24755Z" fill="black"/>
</svg>
