<svg width="10" height="17" viewBox="0 0 10 17" fill="none" xmlns="http://www.w3.org/2000/svg">
<path d="M9.14 15.24H7.62V16.77H9.14V15.24Z" fill="black"/>
<path d="M7.62 13.72H6.1V15.24H7.62V13.72Z" fill="black"/>
<path d="M6.1 12.19H4.57V13.72H6.1V12.19Z" fill="black"/>
<path d="M4.57 10.67H3.05V12.19H4.57V10.67Z" fill="black"/>
<path d="M3.05 9.15H1.52V10.67H3.05V9.15Z" fill="black"/>
<path d="M1.52 7.62H0V9.15H1.52V7.62Z" fill="black"/>
<path d="M3.05 6.1H1.52V7.62H3.05V6.1Z" fill="black"/>
<path d="M4.57 4.58H3.05V6.1H4.57V4.58Z" fill="black"/>
<path d="M6.1 3.05H4.57V4.58H6.1V3.05Z" fill="black"/>
<path d="M7.62 1.53H6.1V3.05H7.62V1.53Z" fill="black"/>
<path d="M9.14 0H7.62V1.53H9.14V0Z" fill="black"/>
</svg>
