<svg width="10" height="17" viewBox="0 0 10 17" fill="none" xmlns="http://www.w3.org/2000/svg">
<path d="M2.2301 15.355H0.710098V16.885H2.2301V15.355Z" fill="black"/>
<path d="M3.7601 13.835H2.2301V15.355H3.7601V13.835Z" fill="black"/>
<path d="M5.2801 12.305H3.7601V13.835H5.2801V12.305Z" fill="black"/>
<path d="M6.8001 10.785H5.2801V12.305H6.8001V10.785Z" fill="black"/>
<path d="M8.3301 9.265H6.8001V10.785H8.3301V9.265Z" fill="black"/>
<path d="M9.8501 7.735H8.3301V9.265H9.8501V7.735Z" fill="black"/>
<path d="M8.3301 6.215H6.8001V7.735H8.3301V6.215Z" fill="black"/>
<path d="M6.8001 4.695H5.2801V6.215H6.8001V4.695Z" fill="black"/>
<path d="M5.2801 3.165H3.7601V4.695H5.2801V3.165Z" fill="black"/>
<path d="M3.7601 1.645H2.2301V3.165H3.7601V1.645Z" fill="black"/>
<path d="M2.2301 0.115H0.710098V1.645H2.2301V0.115Z" fill="black"/>
</svg>
