<svg width="17" height="10" viewBox="0 0 17 10" fill="none" xmlns="http://www.w3.org/2000/svg">
<path d="M1.62755 9.15745L1.62755 7.63745L0.0975482 7.63745L0.0975481 9.15745L1.62755 9.15745Z" fill="black"/>
<path d="M3.14755 7.63745L3.14755 6.11745L1.62755 6.11745L1.62755 7.63745L3.14755 7.63745Z" fill="black"/>
<path d="M4.67755 6.11745L4.67755 4.58745L3.14755 4.58745L3.14755 6.11745L4.67755 6.11745Z" fill="black"/>
<path d="M6.19755 4.58745L6.19755 3.06745L4.67755 3.06745L4.67755 4.58745L6.19755 4.58745Z" fill="black"/>
<path d="M7.71755 3.06745L7.71755 1.53745L6.19755 1.53745L6.19755 3.06745L7.71755 3.06745Z" fill="black"/>
<path d="M9.24755 1.53745L9.24755 0.0174503L7.71755 0.0174503L7.71755 1.53745L9.24755 1.53745Z" fill="black"/>
<path d="M10.7675 3.06745L10.7675 1.53745L9.24755 1.53745L9.24755 3.06745L10.7675 3.06745Z" fill="black"/>
<path d="M12.2875 4.58745L12.2875 3.06745L10.7675 3.06745L10.7675 4.58745L12.2875 4.58745Z" fill="black"/>
<path d="M13.8175 6.11745L13.8175 4.58745L12.2875 4.58745L12.2875 6.11745L13.8175 6.11745Z" fill="black"/>
<path d="M15.3375 7.63745L15.3375 6.11745L13.8175 6.11745L13.8175 7.63745L15.3375 7.63745Z" fill="black"/>
<path d="M16.8675 9.15745L16.8675 7.63745L15.3375 7.63745L15.3375 9.15745L16.8675 9.15745Z" fill="black"/>
</svg>
